<svg width="800" height="400" viewBox="0 0 800 400" xmlns="http://www.w3.org/2000/svg"><defs><pattern id="satori_pattern_id_0" x="0" y="0" width="1" height="1" patternUnits="objectBoundingBox"><linearGradient id="satori_biid_0" x1="0" y1="0" x2="0" y2="1"><stop offset="0%" stop-color="#dbf4ff"/><stop offset="100%" stop-color="#fff1f1"/></linearGradient><rect x="0" y="0" width="800" height="400" fill="url(#satori_biid_0)"/></pattern></defs><mask id="satori_om-id"><rect x="0" y="0" width="800" height="400" fill="#fff"/></mask><rect x="0" y="0" width="800" height="400" fill="url(#satori_pattern_id_0)"/><clipPath id="satori_bct-id-0"><path d="M273.9 89.3L273.9 89.3Q273.9 96.5 271.2 101.5Q268.5 106.5 263.9 109.1Q259.2 111.8 253.5 111.8L253.5 111.8Q247.6 111.8 243.0 109.1Q238.4 106.5 235.7 101.5Q233.0 96.5 233.0 89.3L233.0 89.3Q233.0 82.2 235.7 77.2Q238.4 72.2 243.0 69.6Q247.6 66.9 253.5 66.9L253.5 66.9Q259.2 66.9 263.9 69.6Q268.5 72.2 271.2 77.2Q273.9 82.2 273.9 89.3ZM264.5 89.3L264.5 89.3Q264.5 84.7 263.2 81.5Q261.8 78.4 259.3 76.7Q256.8 75.1 253.5 75.1L253.5 75.1Q250.1 75.1 247.6 76.7Q245.1 78.4 243.8 81.5Q242.4 84.7 242.4 89.3L242.4 89.3Q242.4 94.0 243.8 97.1Q245.1 100.3 247.6 102.0Q250.1 103.6 253.5 103.6L253.5 103.6Q256.8 103.6 259.3 102.0Q261.8 100.3 263.2 97.1Q264.5 94.0 264.5 89.3ZM287.6 123.4L278.5 123.4L278.5 78.4L287.5 78.4L287.5 83.9L287.9 83.9Q288.5 82.6 289.6 81.2Q290.8 79.9 292.6 78.9Q294.5 78.0 297.2 78.0L297.2 78.0Q300.8 78.0 303.8 79.9Q306.8 81.7 308.6 85.5Q310.5 89.2 310.5 94.8L310.5 94.8Q310.5 100.3 308.7 104.1Q306.9 107.8 303.9 109.8Q300.9 111.7 297.2 111.7L297.2 111.7Q294.5 111.7 292.7 110.8Q290.9 109.9 289.7 108.6Q288.5 107.3 287.9 105.9L287.9 105.9L287.6 105.9L287.6 123.4ZM287.4 94.8L287.4 94.8Q287.4 97.7 288.2 99.9Q289.0 102.1 290.6 103.3Q292.1 104.5 294.3 104.5L294.3 104.5Q296.5 104.5 298.1 103.2Q299.6 102.0 300.4 99.8Q301.2 97.7 301.2 94.8L301.2 94.8Q301.2 92.0 300.4 89.8Q299.6 87.7 298.1 86.4Q296.5 85.2 294.3 85.2L294.3 85.2Q292.1 85.2 290.6 86.4Q289.0 87.6 288.2 89.7Q287.4 91.9 287.4 94.8ZM329.4 111.8L329.4 111.8Q324.4 111.8 320.7 109.7Q317.1 107.7 315.1 103.9Q313.2 100.1 313.2 94.9L313.2 94.9Q313.2 89.9 315.1 86.1Q317.1 82.3 320.7 80.1Q324.2 78.0 329.0 78.0L329.0 78.0Q332.3 78.0 335.1 79.0Q337.9 80.1 340.0 82.1Q342.1 84.2 343.3 87.3Q344.4 90.5 344.4 94.6L344.4 94.6L344.4 97.1L316.8 97.1L316.8 91.5L335.9 91.5Q335.9 89.5 335.0 88.0Q334.2 86.5 332.7 85.6Q331.2 84.8 329.2 84.8L329.2 84.8Q327.1 84.8 325.5 85.7Q323.9 86.7 323.1 88.3Q322.2 89.9 322.1 91.8L322.1 91.8L322.1 97.1Q322.1 99.6 323.0 101.3Q323.9 103.1 325.6 104.1Q327.3 105.0 329.6 105.0L329.6 105.0Q331.1 105.0 332.3 104.6Q333.6 104.2 334.5 103.3Q335.4 102.5 335.8 101.2L335.8 101.2L344.2 101.8Q343.6 104.8 341.6 107.1Q339.7 109.3 336.6 110.6Q333.5 111.8 329.4 111.8ZM357.4 92.2L357.4 92.2L357.4 111.2L348.3 111.2L348.3 78.4L357.0 78.4L357.0 84.2L357.4 84.2Q358.5 81.4 361.0 79.7Q363.6 78.0 367.2 78.0L367.2 78.0Q370.6 78.0 373.2 79.5Q375.7 81.0 377.1 83.7Q378.5 86.5 378.5 90.3L378.5 90.3L378.5 111.2L369.4 111.2L369.4 91.9Q369.5 88.9 367.9 87.2Q366.4 85.5 363.6 85.5L363.6 85.5Q361.8 85.5 360.4 86.3Q359 87.1 358.2 88.6Q357.4 90.1 357.4 92.2ZM384.1 89.6L404.0 89.6L404.0 96.8L384.1 96.8L384.1 89.6ZM428.4 77.5L417.5 111.2L407.6 111.2L422.6 67.5L434.5 67.5L449.6 111.2L439.7 111.2L428.8 77.5L428.4 77.5ZM416.9 101.2L416.9 94.0L440.2 94.0L440.2 101.2L416.9 101.2ZM473.6 97.2L473.6 97.2L473.6 78.4L482.7 78.4L482.7 111.2L474.0 111.2L474.0 105.2L473.7 105.2Q472.6 108.1 470.0 109.8Q467.4 111.6 463.7 111.6L463.7 111.6Q460.5 111.6 458.0 110.1Q455.5 108.6 454.1 105.9Q452.7 103.1 452.7 99.3L452.7 99.3L452.7 78.4L461.7 78.4L461.7 97.7Q461.7 100.5 463.3 102.2Q464.8 103.9 467.4 103.9L467.4 103.9Q469.0 103.9 470.5 103.2Q471.9 102.4 472.8 100.9Q473.7 99.4 473.6 97.2ZM500.0 111.7L500.0 111.7Q496.3 111.7 493.3 109.8Q490.3 107.8 488.5 104.1Q486.7 100.3 486.7 94.8L486.7 94.8Q486.7 89.2 488.6 85.5Q490.4 81.7 493.4 79.9Q496.4 78.0 500.0 78.0L500.0 78.0Q502.7 78.0 504.6 78.9Q506.4 79.9 507.6 81.2Q508.7 82.6 509.3 83.9L509.3 83.9L509.6 83.9L509.6 67.5L518.6 67.5L518.6 111.2L509.7 111.2L509.7 105.9L509.3 105.9Q508.7 107.3 507.5 108.6Q506.3 109.9 504.5 110.8Q502.7 111.7 500.0 111.7ZM502.9 104.5L502.9 104.5Q505.1 104.5 506.6 103.3Q508.1 102.1 509.0 99.9Q509.8 97.7 509.8 94.8L509.8 94.8Q509.8 91.9 509.0 89.7Q508.2 87.6 506.6 86.4Q505.1 85.2 502.9 85.2L502.9 85.2Q500.7 85.2 499.1 86.4Q497.6 87.7 496.8 89.8Q496.0 92.0 496.0 94.8L496.0 94.8Q496.0 97.7 496.8 99.8Q497.6 102.0 499.1 103.2Q500.7 104.5 502.9 104.5ZM533.2 111.2L524.1 111.2L524.1 78.4L533.2 78.4L533.2 111.2ZM528.6 74.2L528.6 74.2Q526.6 74.2 525.2 72.9Q523.7 71.5 523.7 69.6L523.7 69.6Q523.7 67.7 525.2 66.4Q526.6 65.0 528.6 65.0L528.6 65.0Q530.7 65.0 532.1 66.4Q533.5 67.7 533.5 69.6L533.5 69.6Q533.5 71.5 532.1 72.9Q530.7 74.2 528.6 74.2ZM553.2 111.8L553.2 111.8Q548.2 111.8 544.6 109.7Q541.0 107.6 539.0 103.8Q537.1 100.0 537.1 94.9L537.1 94.9Q537.1 89.9 539.0 86.1Q541.0 82.2 544.6 80.1Q548.2 78.0 553.2 78.0L553.2 78.0Q558.2 78.0 561.8 80.1Q565.4 82.2 567.3 86.1Q569.3 89.9 569.3 94.9L569.3 94.9Q569.3 100.0 567.3 103.8Q565.4 107.6 561.8 109.7Q558.2 111.8 553.2 111.8ZM553.2 104.8L553.2 104.8Q555.5 104.8 557 103.5Q558.5 102.2 559.3 100.0Q560.1 97.7 560.1 94.9L560.1 94.9Q560.1 92.0 559.3 89.8Q558.5 87.5 557 86.2Q555.5 84.9 553.2 84.9L553.2 84.9Q550.9 84.9 549.4 86.2Q547.9 87.5 547.1 89.8Q546.3 92.0 546.3 94.9L546.3 94.9Q546.3 97.7 547.1 100.0Q547.9 102.2 549.4 103.5Q550.9 104.8 553.2 104.8Z "/></clipPath><defs><pattern id="satori_pattern_id-0_0" x="0" y="0" width="1" height="1" patternUnits="objectBoundingBox"><linearGradient id="satori_biid-0_0" x1="0" y1="0" x2="1" y2="0"><stop offset="0%" stop-color="rgb(0,124,240)"/><stop offset="100%" stop-color="rgb(0,223,216)"/></linearGradient><rect x="0" y="0" width="340" height="73" fill="url(#satori_biid-0_0)"/></pattern></defs><mask id="satori_om-id-0"><rect x="230" y="55" width="340" height="73" fill="#fff"/></mask><rect x="230" y="55" width="340" height="73" fill="url(#satori_pattern_id-0_0)" clip-path="url(#satori_bct-id-0)"/><clipPath id="satori_bct-id-1"><path d="M212.5 168.1L199.1 168.1L199.1 160.5L235.0 160.5L235.0 168.1L221.6 168.1L221.6 204.2L212.5 204.2L212.5 168.1ZM250.6 168.1L237.2 168.1L237.2 160.5L273.1 160.5L273.1 168.1L259.7 168.1L259.7 204.2L250.6 204.2L250.6 168.1ZM309.5 173.1L300.7 173.1Q300.4 170.5 298.5 169.1Q296.5 167.6 293.2 167.6L293.2 167.6Q290.9 167.6 289.4 168.3Q287.8 168.9 287.0 170.0Q286.2 171.1 286.2 172.5L286.2 172.5Q286.2 173.7 286.7 174.6Q287.2 175.4 288.2 176.1Q289.2 176.7 290.4 177.2Q291.7 177.6 293.1 177.9L293.1 177.9L297.0 178.9Q299.9 179.5 302.3 180.6Q304.6 181.6 306.4 183.2Q308.1 184.7 309.1 186.9Q310.1 189.0 310.1 191.7L310.1 191.7Q310.1 195.7 308.1 198.6Q306.1 201.6 302.3 203.2Q298.5 204.8 293.2 204.8L293.2 204.8Q287.9 204.8 284.0 203.2Q280.1 201.5 277.9 198.4Q275.7 195.2 275.6 190.5L275.6 190.5L284.5 190.5Q284.7 192.7 285.8 194.1Q286.9 195.6 288.8 196.3Q290.7 197.0 293.1 197.0L293.1 197.0Q295.4 197.0 297.1 196.4Q298.9 195.7 299.8 194.5Q300.8 193.3 300.8 191.7L300.8 191.7Q300.8 190.2 299.9 189.2Q299.1 188.2 297.4 187.5Q295.8 186.8 293.4 186.2L293.4 186.2L288.6 185.0Q283.1 183.7 279.9 180.8Q276.7 178.0 276.7 173.1L276.7 173.1Q276.7 169.2 278.9 166.2Q281.0 163.3 284.7 161.6Q288.5 159.9 293.3 159.9L293.3 159.9Q298.1 159.9 301.8 161.6Q305.4 163.3 307.4 166.2Q309.4 169.2 309.5 173.1L309.5 173.1Z M364.5 174.6L355.1 174.6Q354.7 173.1 353.9 171.9Q353.1 170.7 351.9 169.8Q350.7 169.0 349.3 168.5Q347.8 168.1 346.0 168.1L346.0 168.1Q342.6 168.1 340.1 169.7Q337.6 171.4 336.2 174.6Q334.8 177.7 334.8 182.3L334.8 182.3Q334.8 186.9 336.2 190.1Q337.6 193.3 340.1 194.9Q342.6 196.6 346.1 196.6L346.1 196.6Q349.2 196.6 351.4 195.5Q353.7 194.4 354.8 192.3Q356.0 190.3 356.0 187.5L356.0 187.5L357.9 187.8L346.6 187.8L346.6 180.8L364.9 180.8L364.9 186.3Q364.9 192.1 362.5 196.2Q360.1 200.3 355.8 202.5Q351.5 204.8 346.0 204.8L346.0 204.8Q339.9 204.8 335.3 202.0Q330.6 199.3 328.0 194.3Q325.4 189.3 325.4 182.4L325.4 182.4Q325.4 177.1 327.0 172.9Q328.5 168.7 331.3 165.9Q334.1 163.0 337.8 161.4Q341.5 159.9 345.8 159.9L345.8 159.9Q349.5 159.9 352.7 161.0Q355.9 162.1 358.4 164.0Q360.9 166.0 362.5 168.7Q364.1 171.4 364.5 174.6L364.5 174.6ZM384.6 204.8L384.6 204.8Q379.5 204.8 375.9 202.7Q372.3 200.7 370.3 196.9Q368.3 193.1 368.3 187.9L368.3 187.9Q368.3 182.9 370.3 179.1Q372.3 175.3 375.8 173.1Q379.4 171.0 384.2 171.0L384.2 171.0Q387.5 171.0 390.3 172.0Q393.1 173.1 395.2 175.1Q397.3 177.2 398.4 180.3Q399.6 183.5 399.6 187.6L399.6 187.6L399.6 190.1L372.0 190.1L372.0 184.5L391.1 184.5Q391.1 182.5 390.2 181.0Q389.4 179.5 387.8 178.6Q386.3 177.8 384.4 177.8L384.4 177.8Q382.3 177.8 380.7 178.7Q379.1 179.7 378.2 181.3Q377.3 182.9 377.3 184.8L377.3 184.8L377.3 190.1Q377.3 192.6 378.2 194.3Q379.1 196.1 380.8 197.1Q382.4 198.0 384.7 198.0L384.7 198.0Q386.2 198.0 387.5 197.6Q388.8 197.2 389.6 196.3Q390.5 195.5 391.0 194.2L391.0 194.2L399.4 194.8Q398.8 197.8 396.8 200.1Q394.8 202.3 391.7 203.6Q388.6 204.8 384.6 204.8ZM412.6 185.2L412.6 185.2L412.6 204.2L403.5 204.2L403.5 171.4L412.2 171.4L412.2 177.2L412.6 177.2Q413.6 174.4 416.2 172.7Q418.8 171.0 422.4 171.0L422.4 171.0Q425.8 171.0 428.3 172.5Q430.9 174.0 432.3 176.7Q433.7 179.5 433.7 183.3L433.7 183.3L433.7 204.2L424.6 204.2L424.6 184.9Q424.6 181.9 423.1 180.2Q421.5 178.5 418.8 178.5L418.8 178.5Q417.0 178.5 415.6 179.3Q414.2 180.1 413.4 181.6Q412.6 183.1 412.6 185.2ZM453.7 204.8L453.7 204.8Q448.7 204.8 445.1 202.7Q441.4 200.7 439.5 196.9Q437.5 193.1 437.5 187.9L437.5 187.9Q437.5 182.9 439.5 179.1Q441.4 175.3 445.0 173.1Q448.6 171.0 453.4 171.0L453.4 171.0Q456.6 171.0 459.4 172.0Q462.2 173.1 464.3 175.1Q466.4 177.2 467.6 180.3Q468.8 183.5 468.8 187.6L468.8 187.6L468.8 190.1L441.1 190.1L441.1 184.5L460.2 184.5Q460.2 182.5 459.4 181.0Q458.5 179.5 457.0 178.6Q455.5 177.8 453.5 177.8L453.5 177.8Q451.5 177.8 449.9 178.7Q448.3 179.7 447.4 181.3Q446.5 182.9 446.5 184.8L446.5 184.8L446.5 190.1Q446.5 192.6 447.4 194.3Q448.3 196.1 450.0 197.1Q451.6 198.0 453.9 198.0L453.9 198.0Q455.4 198.0 456.7 197.6Q457.9 197.2 458.8 196.3Q459.7 195.5 460.2 194.2L460.2 194.2L468.6 194.8Q467.9 197.8 466.0 200.1Q464.0 202.3 460.9 203.6Q457.8 204.8 453.7 204.8ZM481.8 204.2L472.7 204.2L472.7 171.4L481.5 171.4L481.5 177.1L481.8 177.1Q482.7 174.1 484.8 172.5Q486.9 171.0 489.7 171.0L489.7 171.0Q490.4 171.0 491.2 171.0Q492.0 171.1 492.5 171.3L492.5 171.3L492.5 179.3Q491.9 179.1 490.8 179.0Q489.7 178.8 488.7 178.8L488.7 178.8Q486.7 178.8 485.1 179.7Q483.6 180.6 482.7 182.1Q481.8 183.6 481.8 185.6L481.8 185.6L481.8 204.2ZM503.6 204.8L503.6 204.8Q500.5 204.8 498.0 203.7Q495.6 202.6 494.2 200.4Q492.8 198.3 492.8 195.0L492.8 195.0Q492.8 192.3 493.8 190.4Q494.8 188.6 496.5 187.5Q498.2 186.3 500.4 185.8Q502.6 185.2 505.1 184.9L505.1 184.9Q507.9 184.6 509.7 184.4Q511.4 184.1 512.2 183.6Q513.0 183.0 513.0 182.0L513.0 182.0L513.0 181.9Q513.0 179.8 511.7 178.7Q510.4 177.6 508.1 177.6L508.1 177.6Q505.7 177.6 504.2 178.7Q502.8 179.8 502.3 181.4L502.3 181.4L493.9 180.7Q494.6 177.7 496.4 175.6Q498.3 173.4 501.3 172.2Q504.2 171.0 508.2 171.0L508.2 171.0Q510.9 171.0 513.4 171.6Q515.9 172.3 517.9 173.6Q519.8 175.0 520.9 177.1Q522.1 179.2 522.1 182.1L522.1 182.1L522.1 204.2L513.5 204.2L513.5 199.6L513.2 199.6Q512.4 201.2 511.1 202.3Q509.8 203.5 507.9 204.1Q506.1 204.8 503.6 204.8ZM506.2 198.5L506.2 198.5Q508.2 198.5 509.8 197.7Q511.3 196.9 512.2 195.6Q513.0 194.2 513.0 192.5L513.0 192.5L513.0 189.0Q512.6 189.3 511.9 189.5Q511.2 189.7 510.2 189.9Q509.3 190.1 508.4 190.2Q507.5 190.4 506.7 190.5L506.7 190.5Q505.1 190.7 504.0 191.2Q502.8 191.7 502.1 192.6Q501.4 193.4 501.4 194.7L501.4 194.7Q501.4 196.6 502.8 197.5Q504.1 198.5 506.2 198.5ZM524.8 171.4L544.5 171.4L544.5 178.3L524.8 178.3L524.8 171.4ZM529.3 195.3L529.3 163.6L538.4 163.6L538.4 194.1Q538.4 195.4 538.7 196.1Q539.1 196.7 539.8 197.0Q540.5 197.3 541.4 197.3L541.4 197.3Q542.1 197.3 542.7 197.2Q543.3 197.1 543.7 197.0L543.7 197.0L545.1 203.8Q544.4 204.0 543.2 204.3Q542.0 204.5 540.2 204.6L540.2 204.6Q536.9 204.7 534.5 203.7Q532.0 202.7 530.6 200.6Q529.3 198.5 529.3 195.3L529.3 195.3ZM562.9 204.8L562.9 204.8Q557.9 204.8 554.3 202.7Q550.7 200.6 548.7 196.8Q546.8 193.0 546.8 187.9L546.8 187.9Q546.8 182.9 548.7 179.1Q550.7 175.2 554.3 173.1Q557.9 171.0 562.9 171.0L562.9 171.0Q567.8 171.0 571.4 173.1Q575.1 175.2 577.0 179.1Q579.0 182.9 579.0 187.9L579.0 187.9Q579.0 193.0 577.0 196.8Q575.1 200.6 571.4 202.7Q567.8 204.8 562.9 204.8ZM562.9 197.8L562.9 197.8Q565.2 197.8 566.7 196.5Q568.2 195.2 569.0 193.0Q569.8 190.7 569.8 187.9L569.8 187.9Q569.8 185.0 569.0 182.8Q568.2 180.5 566.7 179.2Q565.2 177.9 562.9 177.9L562.9 177.9Q560.6 177.9 559.1 179.2Q557.5 180.5 556.8 182.8Q556.0 185.0 556.0 187.9L556.0 187.9Q556.0 190.7 556.8 193.0Q557.5 195.2 559.1 196.5Q560.6 197.8 562.9 197.8ZM592.0 204.2L582.9 204.2L582.9 171.4L591.7 171.4L591.7 177.1L592.0 177.1Q592.9 174.1 595.0 172.5Q597.2 171.0 599.9 171.0L599.9 171.0Q600.6 171.0 601.4 171.0Q602.2 171.1 602.8 171.3L602.8 171.3L602.8 179.3Q602.1 179.1 601.0 179.0Q599.9 178.8 598.9 178.8L598.9 178.8Q596.9 178.8 595.4 179.7Q593.8 180.6 592.9 182.1Q592.0 183.6 592.0 185.6L592.0 185.6L592.0 204.2Z "/></clipPath><defs><pattern id="satori_pattern_id-1_0" x="0" y="0" width="1" height="1" patternUnits="objectBoundingBox"><linearGradient id="satori_biid-1_0" x1="0" y1="0" x2="1" y2="0"><stop offset="0%" stop-color="rgb(121,40,202)"/><stop offset="100%" stop-color="rgb(255,0,128)"/></linearGradient><rect x="0" y="0" width="407" height="72" fill="url(#satori_biid-1_0)"/></pattern></defs><mask id="satori_om-id-1"><rect x="197" y="148" width="407" height="72" fill="#fff"/></mask><rect x="197" y="148" width="407" height="72" fill="url(#satori_pattern_id-1_0)" clip-path="url(#satori_bct-id-1)"/><clipPath id="satori_bct-id-2"><path d="M76.0 296.2L66.8 296.2L66.8 252.5L84.0 252.5Q89.0 252.5 92.5 254.4Q96.0 256.3 97.8 259.6Q99.6 263.0 99.6 267.3L99.6 267.3Q99.6 271.7 97.8 275.0Q95.9 278.3 92.4 280.2Q88.8 282.0 83.8 282.0L83.8 282.0L72.8 282.0L72.8 274.6L82.3 274.6Q84.9 274.6 86.7 273.7Q88.4 272.8 89.3 271.1Q90.1 269.5 90.1 267.3L90.1 267.3Q90.1 265.1 89.3 263.5Q88.4 261.9 86.7 261.0Q84.9 260.1 82.2 260.1L82.2 260.1L76.0 260.1L76.0 296.2ZM117.7 296.8L117.7 296.8Q112.8 296.8 109.1 294.7Q105.5 292.6 103.6 288.8Q101.6 285.0 101.6 279.9L101.6 279.9Q101.6 274.9 103.6 271.1Q105.5 267.2 109.1 265.1Q112.8 263.0 117.7 263.0L117.7 263.0Q122.7 263.0 126.3 265.1Q129.9 267.2 131.9 271.1Q133.8 274.9 133.8 279.9L133.8 279.9Q133.8 285.0 131.9 288.8Q129.9 292.6 126.3 294.7Q122.7 296.8 117.7 296.8ZM117.8 289.8L117.8 289.8Q120.0 289.8 121.5 288.5Q123.0 287.2 123.8 285.0Q124.6 282.7 124.6 279.9L124.6 279.9Q124.6 277.0 123.8 274.8Q123.0 272.5 121.5 271.2Q120.0 269.9 117.8 269.9L117.8 269.9Q115.5 269.9 113.9 271.2Q112.4 272.5 111.6 274.8Q110.8 277.0 110.8 279.9L110.8 279.9Q110.8 282.7 111.6 285.0Q112.4 287.2 113.9 288.5Q115.5 289.8 117.8 289.8ZM153.0 296.2L143.4 296.2L134.5 263.4L143.7 263.4L148.7 285.4L149.0 285.4L154.3 263.4L163.3 263.4L168.7 285.3L169.0 285.3L174.0 263.4L183.1 263.4L174.2 296.2L164.6 296.2L159.0 275.6L158.6 275.6L153.0 296.2ZM200.1 296.8L200.1 296.8Q195.0 296.8 191.4 294.7Q187.7 292.7 185.8 288.9Q183.8 285.1 183.8 279.9L183.8 279.9Q183.8 274.9 185.8 271.1Q187.7 267.3 191.3 265.1Q194.9 263.0 199.7 263.0L199.7 263.0Q202.9 263.0 205.7 264.0Q208.5 265.1 210.6 267.1Q212.7 269.2 213.9 272.3Q215.1 275.5 215.1 279.6L215.1 279.6L215.1 282.1L187.4 282.1L187.4 276.5L206.5 276.5Q206.5 274.5 205.7 273.0Q204.8 271.5 203.3 270.6Q201.8 269.8 199.8 269.8L199.8 269.8Q197.8 269.8 196.2 270.7Q194.6 271.7 193.7 273.3Q192.8 274.9 192.8 276.8L192.8 276.8L192.8 282.1Q192.8 284.6 193.7 286.3Q194.6 288.1 196.3 289.1Q197.9 290.0 200.2 290.0L200.2 290.0Q201.7 290.0 203.0 289.6Q204.2 289.2 205.1 288.3Q206.0 287.5 206.5 286.2L206.5 286.2L214.9 286.8Q214.2 289.8 212.3 292.1Q210.3 294.3 207.2 295.6Q204.1 296.8 200.1 296.8ZM228.1 296.2L219.0 296.2L219.0 263.4L227.8 263.4L227.8 269.1L228.1 269.1Q229.0 266.1 231.1 264.5Q233.3 263.0 236.0 263.0L236.0 263.0Q236.7 263.0 237.5 263.0Q238.3 263.1 238.9 263.3L238.9 263.3L238.9 271.3Q238.2 271.1 237.1 271.0Q236.0 270.8 235.0 270.8L235.0 270.8Q233.0 270.8 231.5 271.7Q229.9 272.6 229.0 274.1Q228.1 275.6 228.1 277.6L228.1 277.6L228.1 296.2ZM254.9 296.8L254.9 296.8Q249.9 296.8 246.2 294.7Q242.6 292.7 240.6 288.9Q238.7 285.1 238.7 279.9L238.7 279.9Q238.7 274.9 240.6 271.1Q242.6 267.3 246.2 265.1Q249.7 263.0 254.5 263.0L254.5 263.0Q257.8 263.0 260.6 264.0Q263.4 265.1 265.5 267.1Q267.6 269.2 268.8 272.3Q269.9 275.5 269.9 279.6L269.9 279.6L269.9 282.1L242.3 282.1L242.3 276.5L261.4 276.5Q261.4 274.5 260.5 273.0Q259.7 271.5 258.2 270.6Q256.7 269.8 254.7 269.8L254.7 269.8Q252.6 269.8 251.0 270.7Q249.4 271.7 248.6 273.3Q247.7 274.9 247.6 276.8L247.6 276.8L247.6 282.1Q247.6 284.6 248.5 286.3Q249.4 288.1 251.1 289.1Q252.8 290.0 255.1 290.0L255.1 290.0Q256.6 290.0 257.8 289.6Q259.1 289.2 260.0 288.3Q260.9 287.5 261.3 286.2L261.3 286.2L269.7 286.8Q269.1 289.8 267.1 292.1Q265.2 294.3 262.1 295.6Q259.0 296.8 254.9 296.8ZM285.9 296.7L285.9 296.7Q282.2 296.7 279.2 294.8Q276.1 292.8 274.4 289.1Q272.6 285.3 272.6 279.8L272.6 279.8Q272.6 274.2 274.4 270.5Q276.3 266.7 279.3 264.9Q282.3 263.0 285.9 263.0L285.9 263.0Q288.6 263.0 290.5 263.9Q292.3 264.9 293.5 266.2Q294.6 267.6 295.2 268.9L295.2 268.9L295.5 268.9L295.5 252.5L304.5 252.5L304.5 296.2L295.6 296.2L295.6 290.9L295.2 290.9Q294.6 292.3 293.4 293.6Q292.2 294.9 290.4 295.8Q288.5 296.7 285.9 296.7ZM288.8 289.5L288.8 289.5Q291.0 289.5 292.5 288.3Q294.0 287.1 294.8 284.9Q295.7 282.7 295.7 279.8L295.7 279.8Q295.7 276.9 294.9 274.7Q294.0 272.6 292.5 271.4Q291.0 270.2 288.8 270.2L288.8 270.2Q286.5 270.2 285.0 271.4Q283.5 272.7 282.7 274.8Q281.9 277.0 281.9 279.8L281.9 279.8Q281.9 282.7 282.7 284.8Q283.5 287.0 285.0 288.2Q286.5 289.5 288.8 289.5Z M334.7 296.2L325.8 296.2L325.8 252.5L334.8 252.5L334.8 268.9L335.1 268.9Q335.7 267.6 336.8 266.2Q338.0 264.9 339.8 263.9Q341.7 263.0 344.4 263.0L344.4 263.0Q348.0 263.0 351.0 264.9Q354.1 266.7 355.9 270.5Q357.7 274.2 357.7 279.8L357.7 279.8Q357.7 285.3 355.9 289.1Q354.2 292.8 351.1 294.8Q348.1 296.7 344.4 296.7L344.4 296.7Q341.8 296.7 339.9 295.8Q338.1 294.9 336.9 293.6Q335.7 292.3 335.1 290.9L335.1 290.9L334.7 290.9L334.7 296.2ZM334.6 279.8L334.6 279.8Q334.6 282.7 335.5 284.9Q336.3 287.1 337.8 288.3Q339.3 289.5 341.5 289.5L341.5 289.5Q343.7 289.5 345.3 288.2Q346.8 287.0 347.6 284.8Q348.4 282.7 348.4 279.8L348.4 279.8Q348.4 277.0 347.6 274.8Q346.8 272.7 345.3 271.4Q343.8 270.2 341.5 270.2L341.5 270.2Q339.3 270.2 337.8 271.4Q336.3 272.6 335.5 274.7Q334.6 276.9 334.6 279.8ZM366.2 308.4L366.2 308.4Q364.5 308.4 363.0 308.2Q361.5 307.9 360.5 307.5L360.5 307.5L362.6 300.7Q364.2 301.2 365.4 301.3Q366.7 301.3 367.7 300.7Q368.6 300.0 369.2 298.5L369.2 298.5L369.8 297.1L358.0 263.4L367.6 263.4L374.3 287.5L374.7 287.5L381.5 263.4L391.1 263.4L378.4 299.7Q377.5 302.3 375.9 304.3Q374.4 306.3 372.0 307.4Q369.6 308.4 366.2 308.4Z M447.0 274.3L447.0 274.3Q447.0 281.5 444.3 286.5Q441.7 291.5 437.0 294.1Q432.4 296.8 426.6 296.8L426.6 296.8Q420.8 296.8 416.2 294.1Q411.5 291.5 408.9 286.5Q406.2 281.5 406.2 274.3L406.2 274.3Q406.2 267.2 408.9 262.2Q411.5 257.2 416.2 254.6Q420.8 251.9 426.6 251.9L426.6 251.9Q432.4 251.9 437.0 254.6Q441.7 257.2 444.3 262.2Q447.0 267.2 447.0 274.3ZM437.7 274.3L437.7 274.3Q437.7 269.7 436.3 266.5Q434.9 263.4 432.4 261.7Q430.0 260.1 426.6 260.1L426.6 260.1Q423.3 260.1 420.8 261.7Q418.3 263.4 416.9 266.5Q415.5 269.7 415.5 274.3L415.5 274.3Q415.5 279.0 416.9 282.1Q418.3 285.3 420.8 287.0Q423.3 288.6 426.6 288.6L426.6 288.6Q430.0 288.6 432.4 287.0Q434.9 285.3 436.3 282.1Q437.7 279.0 437.7 274.3ZM460.8 308.4L451.7 308.4L451.7 263.4L460.6 263.4L460.6 268.9L461.0 268.9Q461.6 267.6 462.8 266.2Q463.9 264.9 465.8 263.9Q467.6 263.0 470.4 263.0L470.4 263.0Q473.9 263.0 477.0 264.9Q480.0 266.7 481.8 270.5Q483.6 274.2 483.6 279.8L483.6 279.8Q483.6 285.3 481.9 289.1Q480.1 292.8 477.1 294.8Q474.1 296.7 470.3 296.7L470.3 296.7Q467.7 296.7 465.9 295.8Q464.0 294.9 462.8 293.6Q461.7 292.3 461.0 290.9L461.0 290.9L460.8 290.9L460.8 308.4ZM460.6 279.8L460.6 279.8Q460.6 282.7 461.4 284.9Q462.2 287.1 463.7 288.3Q465.3 289.5 467.5 289.5L467.5 289.5Q469.7 289.5 471.2 288.2Q472.7 287.0 473.5 284.8Q474.3 282.7 474.3 279.8L474.3 279.8Q474.3 277.0 473.6 274.8Q472.8 272.7 471.2 271.4Q469.7 270.2 467.5 270.2L467.5 270.2Q465.2 270.2 463.7 271.4Q462.2 272.6 461.4 274.7Q460.6 276.9 460.6 279.8ZM502.6 296.8L502.6 296.8Q497.5 296.8 493.9 294.7Q490.2 292.7 488.3 288.9Q486.3 285.1 486.3 279.9L486.3 279.9Q486.3 274.9 488.3 271.1Q490.2 267.3 493.8 265.1Q497.4 263.0 502.2 263.0L502.2 263.0Q505.4 263.0 508.2 264.0Q511.0 265.1 513.1 267.1Q515.2 269.2 516.4 272.3Q517.6 275.5 517.6 279.6L517.6 279.6L517.6 282.1L489.9 282.1L489.9 276.5L509.0 276.5Q509.0 274.5 508.2 273.0Q507.3 271.5 505.8 270.6Q504.3 269.8 502.3 269.8L502.3 269.8Q500.3 269.8 498.7 270.7Q497.1 271.7 496.2 273.3Q495.3 274.9 495.3 276.8L495.3 276.8L495.3 282.1Q495.3 284.6 496.2 286.3Q497.1 288.1 498.8 289.1Q500.4 290.0 502.7 290.0L502.7 290.0Q504.2 290.0 505.5 289.6Q506.7 289.2 507.6 288.3Q508.5 287.5 509.0 286.2L509.0 286.2L517.4 286.8Q516.7 289.8 514.8 292.1Q512.8 294.3 509.7 295.6Q506.6 296.8 502.6 296.8ZM530.6 277.2L530.6 277.2L530.6 296.2L521.5 296.2L521.5 263.4L530.1 263.4L530.1 269.2L530.5 269.2Q531.6 266.4 534.2 264.7Q536.7 263.0 540.4 263.0L540.4 263.0Q543.8 263.0 546.3 264.5Q548.9 266.0 550.3 268.7Q551.7 271.5 551.7 275.3L551.7 275.3L551.7 296.2L542.6 296.2L542.6 276.9Q542.6 273.9 541.1 272.2Q539.5 270.5 536.8 270.5L536.8 270.5Q534.9 270.5 533.5 271.3Q532.2 272.1 531.4 273.6Q530.6 275.1 530.6 277.2ZM575.5 262.5L564.5 296.2L554.6 296.2L569.7 252.5L581.6 252.5L596.6 296.2L586.7 296.2L575.8 262.5L575.5 262.5ZM563.9 286.2L563.9 279.0L587.2 279.0L587.2 286.2L563.9 286.2ZM599.8 252.5L609.1 252.5L609.1 296.2L599.8 296.2L599.8 252.5Z M638.3 260.1L624.9 260.1L624.9 252.5L660.8 252.5L660.8 260.1L647.4 260.1L647.4 296.2L638.3 296.2L638.3 260.1ZM676.4 260.1L663.0 260.1L663.0 252.5L698.9 252.5L698.9 260.1L685.5 260.1L685.5 296.2L676.4 296.2L676.4 260.1ZM735.3 265.1L726.5 265.1Q726.2 262.5 724.3 261.1Q722.3 259.6 719.0 259.6L719.0 259.6Q716.8 259.6 715.2 260.3Q713.6 260.9 712.8 262.0Q712.0 263.1 712.0 264.5L712.0 264.5Q712.0 265.7 712.5 266.6Q713.0 267.4 714.0 268.1Q715.0 268.7 716.2 269.2Q717.5 269.6 718.9 269.9L718.9 269.9L722.8 270.9Q725.7 271.5 728.1 272.6Q730.5 273.6 732.2 275.2Q733.9 276.7 734.9 278.9Q735.9 281.0 735.9 283.7L735.9 283.7Q735.9 287.7 733.9 290.6Q731.9 293.6 728.1 295.2Q724.3 296.8 719.0 296.8L719.0 296.8Q713.7 296.8 709.8 295.2Q705.9 293.5 703.7 290.4Q701.5 287.2 701.4 282.5L701.4 282.5L710.3 282.5Q710.5 284.7 711.6 286.1Q712.7 287.6 714.6 288.3Q716.5 289.0 718.9 289.0L718.9 289.0Q721.2 289.0 722.9 288.4Q724.7 287.7 725.6 286.5Q726.6 285.3 726.6 283.7L726.6 283.7Q726.6 282.2 725.7 281.2Q724.9 280.2 723.2 279.5Q721.6 278.8 719.2 278.2L719.2 278.2L714.4 277.0Q708.9 275.7 705.7 272.8Q702.5 270.0 702.5 265.1L702.5 265.1Q702.5 261.2 704.7 258.2Q706.8 255.3 710.5 253.6Q714.3 251.9 719.1 251.9L719.1 251.9Q723.9 251.9 727.6 253.6Q731.2 255.3 733.2 258.2Q735.2 261.2 735.3 265.1L735.3 265.1Z "/></clipPath><defs><pattern id="satori_pattern_id-2_0" x="0" y="0" width="1" height="1" patternUnits="objectBoundingBox"><linearGradient id="satori_biid-2_0" x1="0" y1="0" x2="1" y2="0"><stop offset="0%" stop-color="rgb(255,77,77)"/><stop offset="100%" stop-color="rgb(249,203,40)"/></linearGradient><rect x="0" y="0" width="674" height="73" fill="url(#satori_biid-2_0)"/></pattern></defs><mask id="satori_om-id-2"><rect x="63" y="240" width="674" height="73" fill="#fff"/></mask><rect x="63" y="240" width="674" height="73" fill="url(#satori_pattern_id-2_0)" clip-path="url(#satori_bct-id-2)"/><clipPath id="satori_bct-id-3"><path d="M321.1 340.3L321.1 330.0L323.8 330.0L323.8 340.3Q323.8 341.5 323.4 342.2Q322.9 342.9 322.1 343.2Q321.2 343.5 320.1 343.5L320.1 343.5Q319.9 343.5 319.8 343.5Q319.7 343.5 319.5 343.5L319.5 343.5L319.5 341.4Q319.6 341.4 319.7 341.4Q319.8 341.4 319.9 341.4L319.9 341.4Q320.6 341.4 320.8 341.1Q321.1 340.8 321.1 340.3L321.1 340.3ZM322.4 328.8L322.4 328.8Q321.8 328.8 321.4 328.4Q321.0 328.0 321.0 327.4L321.0 327.4Q321.0 326.8 321.4 326.4Q321.8 326.0 322.4 326.0L322.4 326.0Q323.1 326.0 323.5 326.4Q323.9 326.8 323.9 327.4L323.9 327.4Q323.9 328.0 323.5 328.4Q323.1 328.8 322.4 328.8ZM330.3 335.7L330.3 335.7L330.3 330.0L333.0 330.0L333.0 339.8L330.4 339.8L330.4 338.1L330.3 338.1Q330.0 338.9 329.2 339.5Q328.4 340.0 327.3 340.0L327.3 340.0Q326.3 340.0 325.6 339.5Q324.8 339.1 324.4 338.3Q324.0 337.4 324.0 336.3L324.0 336.3L324.0 330.0L326.7 330.0L326.7 335.8Q326.7 336.7 327.2 337.2Q327.6 337.7 328.4 337.7L328.4 337.7Q328.9 337.7 329.3 337.4Q329.8 337.2 330.0 336.8Q330.3 336.3 330.3 335.7ZM341.3 332.8L341.3 332.8L338.9 333.0Q338.8 332.7 338.6 332.4Q338.4 332.1 338.0 332.0Q337.7 331.8 337.2 331.8L337.2 331.8Q336.6 331.8 336.1 332.1Q335.7 332.4 335.7 332.8L335.7 332.8Q335.7 333.2 336.0 333.4Q336.3 333.6 337.0 333.8L337.0 333.8L338.7 334.1Q340.2 334.4 340.9 335.1Q341.6 335.7 341.6 336.8L341.6 336.8Q341.6 337.8 341.0 338.5Q340.4 339.2 339.5 339.6Q338.5 340.0 337.2 340.0L337.2 340.0Q335.2 340.0 334.1 339.2Q332.9 338.4 332.7 337.0L332.7 337.0L335.4 336.9Q335.5 337.5 336.0 337.8Q336.5 338.1 337.2 338.1L337.2 338.1Q337.9 338.1 338.4 337.8Q338.8 337.5 338.8 337.1L338.8 337.1Q338.8 336.7 338.5 336.5Q338.2 336.2 337.5 336.1L337.5 336.1L335.8 335.8Q334.4 335.5 333.7 334.8Q333.0 334.1 333.0 333.0L333.0 333.0Q333.0 332.0 333.5 331.3Q334.0 330.6 335.0 330.3Q335.9 329.9 337.2 329.9L337.2 329.9Q339.0 329.9 340.1 330.7Q341.2 331.5 341.3 332.8ZM340.6 330.0L346.5 330.0L346.5 332.1L340.6 332.1L340.6 330.0ZM341.9 337.2L341.9 327.7L344.7 327.7L344.7 336.8Q344.7 337.2 344.8 337.4Q344.9 337.6 345.1 337.7Q345.3 337.8 345.6 337.8L345.6 337.8Q345.8 337.8 346.0 337.8Q346.2 337.7 346.3 337.7L346.3 337.7L346.7 339.7Q346.5 339.8 346.1 339.9Q345.7 340.0 345.2 340.0L345.2 340.0Q344.2 340.0 343.5 339.7Q342.8 339.4 342.3 338.8Q341.9 338.2 341.9 337.2L341.9 337.2Z M351.2 339.8L348.5 339.8L348.5 326.8L351.2 326.8L351.2 331.7L351.3 331.7Q351.5 331.3 351.8 330.9Q352.2 330.5 352.7 330.2Q353.3 329.9 354.1 329.9L354.1 329.9Q355.2 329.9 356.1 330.5Q357.0 331.0 357.5 332.1Q358.1 333.3 358.1 335.0L358.1 335.0Q358.1 336.6 357.6 337.7Q357.0 338.9 356.1 339.4Q355.2 340.0 354.1 340.0L354.1 340.0Q353.3 340.0 352.8 339.7Q352.2 339.5 351.8 339.1Q351.5 338.7 351.3 338.3L351.3 338.3L351.2 338.3L351.2 339.8ZM351.2 334.9L351.2 334.9Q351.2 335.8 351.4 336.5Q351.7 337.1 352.1 337.5Q352.6 337.8 353.2 337.8L353.2 337.8Q353.9 337.8 354.4 337.5Q354.8 337.1 355.1 336.5Q355.3 335.8 355.3 334.9L355.3 334.9Q355.3 334.1 355.1 333.4Q354.8 332.8 354.4 332.4Q353.9 332.1 353.2 332.1L353.2 332.1Q352.6 332.1 352.1 332.4Q351.7 332.8 351.4 333.4Q351.2 334.1 351.2 334.9ZM360.6 339.8L357.9 339.8L357.9 330.0L360.5 330.0L360.5 331.7L360.6 331.7Q360.9 330.8 361.5 330.4Q362.2 329.9 363.0 329.9L363.0 329.9Q363.2 329.9 363.4 329.9Q363.7 329.9 363.8 330.0L363.8 330.0L363.8 332.4Q363.7 332.3 363.3 332.3Q363.0 332.3 362.7 332.3L362.7 332.3Q362.1 332.3 361.6 332.5Q361.2 332.8 360.9 333.2Q360.6 333.7 360.6 334.3L360.6 334.3L360.6 339.8ZM366.0 339.8L363.2 339.8L363.2 330.0L366.0 330.0L366.0 339.8ZM364.6 328.8L364.6 328.8Q364.0 328.8 363.6 328.4Q363.1 328.0 363.1 327.4L363.1 327.4Q363.1 326.8 363.6 326.4Q364.0 326.0 364.6 326.0L364.6 326.0Q365.2 326.0 365.7 326.4Q366.1 326.8 366.1 327.4L366.1 327.4Q366.1 328.0 365.7 328.4Q365.2 328.8 364.6 328.8ZM368.9 334.2L368.9 334.2L368.9 339.8L366.1 339.8L366.1 330.0L368.7 330.0L368.7 331.8L368.9 331.8Q369.2 330.9 369.9 330.4Q370.7 329.9 371.8 329.9L371.8 329.9Q372.8 329.9 373.6 330.3Q374.4 330.8 374.8 331.6Q375.2 332.5 375.2 333.6L375.2 333.6L375.2 339.8L372.5 339.8L372.5 334.1Q372.5 333.2 372.0 332.7Q371.5 332.2 370.7 332.2L370.7 332.2Q370.2 332.2 369.8 332.4Q369.3 332.6 369.1 333.1Q368.9 333.5 368.9 334.2ZM379.8 343.7L379.8 343.7Q378.4 343.7 377.5 343.4Q376.6 343.0 376.0 342.4Q375.4 341.8 375.3 341.0L375.3 341.0L377.8 340.7Q377.9 341.0 378.2 341.2Q378.4 341.5 378.8 341.6Q379.2 341.8 379.8 341.8L379.8 341.8Q380.7 341.8 381.3 341.3Q381.9 340.9 381.9 339.9L381.9 339.9L381.9 338.1L381.8 338.1Q381.6 338.5 381.2 338.9Q380.9 339.2 380.3 339.5Q379.7 339.7 379.0 339.7L379.0 339.7Q377.8 339.7 376.9 339.2Q376.0 338.7 375.5 337.6Q375.0 336.5 375.0 334.9L375.0 334.9Q375.0 333.3 375.5 332.1Q376.1 331.0 377.0 330.5Q377.9 329.9 378.9 329.9L378.9 329.9Q379.8 329.9 380.3 330.2Q380.9 330.5 381.2 330.9Q381.6 331.3 381.8 331.7L381.8 331.7L381.9 331.7L381.9 330.0L384.6 330.0L384.6 339.9Q384.6 341.2 383.9 342.0Q383.3 342.9 382.2 343.3Q381.2 343.7 379.8 343.7ZM379.8 337.7L379.8 337.7Q380.5 337.7 380.9 337.3Q381.4 337.0 381.6 336.4Q381.9 335.8 381.9 334.9L381.9 334.9Q381.9 334.0 381.6 333.4Q381.4 332.8 380.9 332.4Q380.5 332.1 379.8 332.1L379.8 332.1Q379.1 332.1 378.7 332.4Q378.2 332.8 378.0 333.4Q377.8 334.1 377.8 334.9L377.8 334.9Q377.8 335.8 378.0 336.4Q378.2 337.0 378.7 337.3Q379.1 337.7 379.8 337.7Z M388.6 343.5L388.6 343.5Q388.1 343.5 387.6 343.5Q387.2 343.4 386.9 343.2L386.9 343.2L387.5 341.2Q388.0 341.4 388.4 341.4Q388.7 341.4 389.0 341.2Q389.3 341.0 389.5 340.5L389.5 340.5L389.6 340.1L386.1 330.0L389.0 330.0L391.0 337.2L391.1 337.2L393.2 330.0L396.1 330.0L392.2 340.9Q392.0 341.7 391.5 342.3Q391.0 342.9 390.3 343.2Q389.6 343.5 388.6 343.5ZM399.6 340.0L399.6 340.0Q398.1 340.0 397.0 339.4Q395.9 338.8 395.3 337.6Q394.7 336.5 394.7 335.0L394.7 335.0Q394.7 333.5 395.3 332.3Q395.9 331.2 397.0 330.5Q398.1 329.9 399.6 329.9L399.6 329.9Q401.1 329.9 402.1 330.5Q403.2 331.2 403.8 332.3Q404.4 333.5 404.4 335.0L404.4 335.0Q404.4 336.5 403.8 337.6Q403.2 338.8 402.1 339.4Q401.1 340.0 399.6 340.0ZM399.6 337.9L399.6 337.9Q400.3 337.9 400.7 337.5Q401.2 337.2 401.4 336.5Q401.6 335.8 401.6 335.0L401.6 335.0Q401.6 334.1 401.4 333.4Q401.2 332.8 400.7 332.4Q400.3 332.0 399.6 332.0L399.6 332.0Q398.9 332.0 398.4 332.4Q398.0 332.8 397.7 333.4Q397.5 334.1 397.5 335.0L397.5 335.0Q397.5 335.8 397.7 336.5Q398.0 337.2 398.4 337.5Q398.9 337.9 399.6 337.9ZM410.5 335.7L410.5 335.7L410.5 330.0L413.2 330.0L413.2 339.8L410.6 339.8L410.6 338.1L410.5 338.1Q410.1 338.9 409.4 339.5Q408.6 340.0 407.5 340.0L407.5 340.0Q406.5 340.0 405.8 339.5Q405.0 339.1 404.6 338.3Q404.2 337.4 404.2 336.3L404.2 336.3L404.2 330.0L406.9 330.0L406.9 335.8Q406.9 336.7 407.4 337.2Q407.8 337.7 408.6 337.7L408.6 337.7Q409.1 337.7 409.5 337.4Q409.9 337.2 410.2 336.8Q410.5 336.3 410.5 335.7ZM416.1 339.8L413.4 339.8L413.4 330.0L416.0 330.0L416.0 331.7L416.1 331.7Q416.4 330.8 417.0 330.4Q417.6 329.9 418.5 329.9L418.5 329.9Q418.7 329.9 418.9 329.9Q419.1 329.9 419.3 330.0L419.3 330.0L419.3 332.4Q419.1 332.3 418.8 332.3Q418.5 332.3 418.2 332.3L418.2 332.3Q417.6 332.3 417.1 332.5Q416.6 332.8 416.4 333.2Q416.1 333.7 416.1 334.3L416.1 334.3L416.1 339.8Z M426.8 329.7L423.5 339.8L420.6 339.8L425.1 326.8L428.7 326.8L433.2 339.8L430.2 339.8L426.9 329.7L426.8 329.7ZM423.3 336.9L423.3 334.7L430.4 334.7L430.4 336.9L423.3 336.9ZM435.5 339.8L432.7 339.8L432.7 326.8L437.9 326.8Q439.4 326.8 440.4 327.3Q441.5 327.9 442.0 328.9Q442.6 329.9 442.6 331.2L442.6 331.2Q442.6 332.5 442.0 333.5Q441.5 334.5 440.4 335.0Q439.3 335.6 437.8 335.6L437.8 335.6L434.5 335.6L434.5 333.4L437.4 333.4Q438.2 333.4 438.7 333.1Q439.2 332.8 439.5 332.3Q439.7 331.8 439.7 331.2L439.7 331.2Q439.7 330.5 439.5 330.1Q439.2 329.6 438.7 329.3Q438.2 329.0 437.4 329.0L437.4 329.0L435.5 329.0L435.5 339.8ZM442.4 326.8L445.2 326.8L445.2 339.8L442.4 339.8L442.4 326.8Z M450.4 339.8L447.6 339.8L447.6 326.8L450.4 326.8L450.4 332.5L450.6 332.5L455.3 326.8L458.6 326.8L453.7 332.6L458.6 339.8L455.3 339.8L451.7 334.5L450.4 336.1L450.4 339.8ZM461.7 340.0L461.7 340.0Q460.2 340.0 459.1 339.4Q458.0 338.8 457.5 337.7Q456.9 336.5 456.9 335.0L456.9 335.0Q456.9 333.5 457.5 332.3Q458.0 331.2 459.1 330.5Q460.2 329.9 461.6 329.9L461.6 329.9Q462.6 329.9 463.4 330.2Q464.3 330.5 464.9 331.1Q465.5 331.8 465.9 332.7Q466.2 333.6 466.2 334.9L466.2 334.9L466.2 335.6L458.0 335.6L458.0 333.9L463.7 333.9Q463.7 333.4 463.4 332.9Q463.2 332.5 462.7 332.2Q462.3 331.9 461.7 331.9L461.7 331.9Q461.1 331.9 460.6 332.2Q460.1 332.5 459.8 333.0Q459.6 333.5 459.6 334.0L459.6 334.0L459.6 335.6Q459.6 336.4 459.8 336.9Q460.1 337.4 460.6 337.7Q461.1 338.0 461.8 338.0L461.8 338.0Q462.2 338.0 462.6 337.9Q463.0 337.8 463.3 337.5Q463.5 337.2 463.7 336.9L463.7 336.9L466.2 337.0Q466.0 337.9 465.4 338.6Q464.8 339.3 463.9 339.7Q463.0 340.0 461.7 340.0ZM467.4 343.5L467.4 343.5Q466.9 343.5 466.5 343.5Q466.0 343.4 465.7 343.2L465.7 343.2L466.3 341.2Q466.8 341.4 467.2 341.4Q467.6 341.4 467.9 341.2Q468.2 341.0 468.3 340.5L468.3 340.5L468.5 340.1L465.0 330.0L467.8 330.0L469.9 337.2L470.0 337.2L472.0 330.0L474.9 330.0L471.1 340.9Q470.8 341.7 470.3 342.3Q469.9 342.9 469.2 343.2Q468.4 343.5 467.4 343.5ZM475.3 340.0L475.3 340.0Q474.6 340.0 474.2 339.6Q473.7 339.1 473.7 338.5L473.7 338.5Q473.7 337.9 474.2 337.4Q474.6 337.0 475.3 337.0L475.3 337.0Q475.9 337.0 476.3 337.4Q476.8 337.9 476.8 338.5L476.8 338.5Q476.8 338.9 476.6 339.3Q476.4 339.6 476.0 339.8Q475.7 340.0 475.3 340.0ZM478.6 340.0L478.6 340.0Q478.0 340.0 477.5 339.6Q477.1 339.1 477.1 338.5L477.1 338.5Q477.1 337.9 477.5 337.4Q478.0 337.0 478.6 337.0L478.6 337.0Q479.2 337.0 479.7 337.4Q480.2 337.9 480.2 338.5L480.2 338.5Q480.2 338.9 479.9 339.3Q479.7 339.6 479.4 339.8Q479.0 340.0 478.6 340.0Z "/></clipPath><defs><pattern id="satori_pattern_id-3_0" x="0" y="0" width="1" height="1" patternUnits="objectBoundingBox"><linearGradient id="satori_biid-3_0" x1="0" y1="0" x2="1" y2="0"><stop offset="0%" stop-color="rgb(255,77,77)"/><stop offset="100%" stop-color="rgb(222,103,40)"/></linearGradient><rect x="0" y="0" width="161" height="22" fill="url(#satori_biid-3_0)"/></pattern></defs><mask id="satori_om-id-3"><rect x="320" y="323" width="161" height="22" fill="#fff"/></mask><rect x="320" y="323" width="161" height="22" fill="url(#satori_pattern_id-3_0)" clip-path="url(#satori_bct-id-3)"/></svg>